<svg width="23" height="45" viewBox="0 0 23 45" fill="none" xmlns="http://www.w3.org/2000/svg">
<path d="M2.44463 0H20.5545C21.9028 0 23 1.19265 23 2.6581V41.4598C23 42.9253 21.9028 44.1179 20.5545 44.1179H2.44534C1.09713 44.1179 -0.000112534 42.9253 -0.000112534 41.4606V2.6581C-0.000192642 1.19265 1.09704 0 2.44463 0ZM1.35278 41.4598C1.35278 42.1143 1.84254 42.6473 2.44463 42.6473H20.5545C21.1573 42.6473 21.647 42.1142 21.647 41.4605V2.6581C21.647 2.00366 21.1573 1.47063 20.5545 1.47063H2.44534C1.84262 1.47063 1.35286 2.00375 1.35286 2.6581V41.4598H1.35278Z" fill="white"/>
</svg>
