<svg width="80" height="81" viewBox="0 0 80 81" fill="none" xmlns="http://www.w3.org/2000/svg">
<path d="M69.4545 36.3435C69.3333 36.1009 68.9697 35.8583 68.8485 35.737L50.303 25.6687C52.1212 21.3018 53.4546 17.0562 53.4546 13.9022C53.4546 6.5027 47.394 0.4375 40 0.4375C32.6061 0.4375 26.5455 6.5027 26.5455 13.9022C26.5455 17.0562 27.7576 21.3018 29.5758 25.5474L11.0304 35.3731C10.6667 35.6157 10.4243 36.1009 10.4243 36.4648V61.4534C10.4243 61.8173 10.6667 62.3025 11.0304 62.4238L39.2728 80.2555C39.6364 80.4982 40.1212 80.4982 40.4849 80.2555L68.9697 65.0925C69.3333 64.8499 69.5757 64.486 69.5757 64.0008V36.95C69.5757 36.8287 69.5757 36.5861 69.4545 36.3435ZM65.8182 36.95L58.5455 40.953L46.3031 34.2813C47.2727 32.3405 48.3636 30.157 49.3333 27.9735L65.8182 36.95ZM52.2424 44.9561L43.1515 39.9826C43.7576 38.8909 44.4849 37.6778 45.2121 36.2222L57.3333 42.8939V50.9L52.8485 53.326V45.9265C52.8485 45.5626 52.6061 45.1987 52.2424 44.9561ZM40 2.86358C46.0606 2.86358 51.0303 7.83704 51.0303 13.9022C51.0303 20.6953 43.394 34.8878 40 40.8317C36.3637 34.7665 28.9697 21.0592 28.9697 13.9022C28.9697 7.83704 33.9394 2.86358 40 2.86358ZM29.9394 27.9735L30.6667 28.3374C31.7576 30.6422 32.8485 32.947 33.9394 35.0091L25.4546 30.3996L29.9394 27.9735ZM22.9091 31.8552L36.1212 39.0122C37.697 41.6809 38.7879 43.6217 38.9091 43.8643C39.1515 44.2282 39.5152 44.4709 39.8788 44.4709C40.2425 44.4709 40.7273 44.2282 40.8485 43.8643C40.9697 43.743 41.3334 43.1365 41.8182 42.2874L48.9697 46.1691L39.7576 51.1426L13.9395 36.5861L22.9091 31.8552ZM12.8486 60.7256V38.527L38.6667 53.2047V77.1016L12.8486 60.7256ZM41.0909 77.2229L50.4243 72.2703L54.1212 70.3086L67.1515 63.3943C67.1515 63.8795 67.5151 63.1517 67.1515 63.3943L41.0909 77.2229Z" fill="#FB794F"/>
<path d="M34.6662 58.2991L18.0602 48.5948C17.4541 48.2309 16.7269 48.4735 16.3632 49.08C15.9996 49.6865 16.242 50.4144 16.8481 50.7783L33.4541 60.4826C34.0602 60.8465 34.7874 60.6039 35.1511 59.9974C35.5147 59.3909 35.2723 58.663 34.6662 58.2991Z" fill="#FB794F"/>
<path d="M34.5456 64.4866L17.9396 54.7823C17.3335 54.4184 16.6063 54.661 16.2426 55.2675C15.879 55.874 16.1214 56.6019 16.7275 56.9658L33.3335 66.6701C33.9396 67.034 34.6668 66.7914 35.0305 66.1849C35.3941 65.5784 35.1517 64.8505 34.5456 64.4866Z" fill="#FB794F"/>
<path d="M39.9999 21.0589C44.1211 21.0589 47.3938 17.6623 47.3938 13.6593C47.3938 9.53497 43.9999 6.25977 39.9999 6.25977C35.8787 6.25977 32.606 9.65628 32.606 13.6593C32.606 17.7836 35.8787 21.0589 39.9999 21.0589ZM39.9999 8.56454C42.7878 8.56454 44.9696 10.8693 44.9696 13.538C44.9696 16.328 42.6665 18.5115 39.9999 18.5115C37.212 18.5115 35.0302 16.2067 35.0302 13.538C35.0302 10.8693 37.212 8.56454 39.9999 8.56454Z" fill="#FB794F"/>
<path d="M10.9091 27.8513C10.9091 28.3366 11.1515 28.7005 11.5151 28.9431C11.8788 29.1857 12.3636 29.0644 12.7273 28.8218L23.6363 20.8157C24 20.5731 24.1212 20.2092 24.1212 19.8453C24.1212 19.4814 23.8788 19.1175 23.6363 18.8748L12.7273 10.8688C12.3636 10.6262 11.8788 10.5049 11.5151 10.7475C11.1515 11.1114 10.9091 11.4753 10.9091 11.9605V14.5079H1.21212C0.484848 14.5079 0 14.9931 0 15.7209V24.2122C0 24.94 0.484848 25.4253 1.21212 25.4253H10.9091V27.8513ZM2.42424 22.8779V16.8127H12.1212C12.8485 16.8127 13.3333 16.3275 13.3333 15.5996V14.2653L20.9697 19.8453L13.3333 25.5466V24.2122C13.3333 23.4844 12.8485 22.9992 12.1212 22.9992H2.42424V22.8779Z" fill="#FB794F"/>
<path d="M78.788 14.5096H69.091V11.9623C69.091 11.477 68.8486 11.1131 68.4849 10.8705C68.1213 10.6279 67.6365 10.7492 67.2728 10.9918L56.3638 18.9979C56.0001 19.2405 55.8789 19.6044 55.8789 19.9683C55.8789 20.3322 56.1213 20.6961 56.3638 20.9388L67.2728 28.9448C67.6365 29.1874 68.1213 29.3087 68.4849 29.0661C68.8486 28.8235 69.091 28.4596 69.091 27.9744V25.427H78.788C79.5152 25.427 80.0001 24.9418 80.0001 24.214V15.7227C80.0001 14.9949 79.5152 14.5096 78.788 14.5096ZM77.5758 22.8796H67.8789C67.1516 22.8796 66.6668 23.3648 66.6668 24.0927V25.427L59.0304 19.847L66.6668 14.267V15.6014C66.6668 16.3292 67.1516 16.8144 67.8789 16.8144H77.5758V22.8796Z" fill="#FB794F"/>
</svg>
