<svg width="22" height="16" viewBox="0 0 22 16" fill="none" xmlns="http://www.w3.org/2000/svg">
<path d="M17.8127 12.2599C17.7255 12.2599 17.6382 12.228 17.5701 12.1634L13.4882 8.33406C13.3456 8.20069 13.3385 7.97581 13.4726 7.83322C13.6067 7.68921 13.8301 7.68282 13.9741 7.81761L18.056 11.647C18.1986 11.7803 18.2057 12.0052 18.0716 12.1478C18.0014 12.2223 17.9078 12.2599 17.8127 12.2599Z" fill="black"/>
<path d="M4.18708 12.2601C4.09273 12.2601 3.99838 12.2225 3.92815 12.148C3.79408 12.0054 3.80117 11.7805 3.94376 11.6471L8.02708 7.81778C8.17038 7.68441 8.39526 7.69009 8.52863 7.83339C8.66271 7.97598 8.65561 8.20086 8.51302 8.33422L4.4297 12.1636C4.3616 12.2281 4.27434 12.2601 4.18708 12.2601Z" fill="black"/>
<path d="M20.2265 15.8199H1.77351C0.79595 15.8199 0 15.0247 0 14.0464V1.95319C0 0.974928 0.79595 0.179688 1.77351 0.179688H20.2265C21.2041 0.179688 22 0.974928 22 1.95319V14.0464C22 15.0247 21.2041 15.8199 20.2265 15.8199ZM1.77351 0.88909C1.18683 0.88909 0.709403 1.36652 0.709403 1.95319V14.0464C0.709403 14.6331 1.18683 15.1105 1.77351 15.1105H20.2265C20.8132 15.1105 21.2906 14.6331 21.2906 14.0464V1.95319C21.2906 1.36652 20.8132 0.88909 20.2265 0.88909H1.77351Z" fill="black"/>
<path d="M11.0002 9.78235C10.5285 9.78235 10.0567 9.62557 9.69774 9.31273L0.58901 1.3667C0.441455 1.2383 0.425848 1.01413 0.55425 0.865866C0.68407 0.71831 0.907532 0.704831 1.05509 0.831815L10.1638 8.77713C10.6171 9.17226 11.3833 9.17226 11.8359 8.77713L20.9333 0.844584C21.0801 0.716182 21.3036 0.73037 21.4341 0.878635C21.5625 1.0269 21.5476 1.25036 21.4001 1.37947L12.3027 9.31202C11.943 9.62557 11.472 9.78235 11.0002 9.78235Z" fill="black"/>
</svg>
