<svg width="86" height="62" viewBox="0 0 86 62" fill="none" xmlns="http://www.w3.org/2000/svg">
<path d="M85.1597 30.9367L72.6138 18.7183C72.3521 18.4633 72.0153 18.3226 71.6664 18.3224H61.6332C61.6255 18.2643 61.615 18.2067 61.6016 18.1498C61.6045 18.0929 61.6045 18.0358 61.6016 17.9788L58.735 3.72897C58.589 3.00354 58.0059 2.48787 57.3332 2.48923H47.8933L46.88 1.36982C46.3203 0.751725 45.413 0.751725 44.8533 1.36982L43.8399 2.48923H5.73364C5.11644 2.48907 4.56845 2.92537 4.37342 3.57222L0.0734551 17.8221C-0.0721362 18.305 0.00127807 18.8357 0.270763 19.2485C0.540247 19.6613 0.972945 19.9059 1.43368 19.9057V39.3457C0.549674 39.9069 0.00343017 40.9459 0.000355698 42.0722V51.5721C0.000355698 53.321 1.2838 54.7388 2.867 54.7388H5.87697C6.0981 55.8909 6.55125 56.9732 7.20279 57.9054H5.73364C4.94204 57.9054 4.30032 58.6143 4.30032 59.4887C4.30032 60.3632 4.94204 61.072 5.73364 61.072H12.9002C16.3045 61.0673 19.2378 58.4222 19.9235 54.7388H63.2098C63.4309 55.8909 63.8841 56.9732 64.5356 57.9054H63.0665C62.2749 57.9054 61.6332 58.6143 61.6332 59.4887C61.6332 60.3632 62.2749 61.072 63.0665 61.072H70.2331C73.6374 61.0673 76.5706 58.4222 77.2564 54.7388H81.6996C83.399 54.7471 84.942 53.6443 85.6316 51.9286C86.3212 50.2129 86.0269 48.209 84.8816 46.8222C85.5974 45.9566 85.9959 44.8278 85.9996 43.6555V33.1676C85.9979 32.399 85.7432 31.6573 85.283 31.0808C85.2444 31.0302 85.2032 30.9821 85.1597 30.9367ZM80.2663 42.0722H83.133V43.6555C83.133 44.53 82.4912 45.2388 81.6996 45.2388H80.2663V42.0722ZM71.1246 21.4891L83.133 33.185V38.9056H80.2663C78.6831 38.9056 77.3997 40.3233 77.3997 42.0722V45.2388H71.6664C70.2331 45.2388 71.0247 45.2388 70.2331 45.2388C69.4415 45.2388 70.2331 45.2388 68.7998 45.2388H61.6332V35.7389H70.2331C71.0247 35.7389 71.6664 35.0301 71.6664 34.1556V27.8223C71.6664 26.9479 71.0247 26.239 70.2331 26.239C69.4415 26.239 68.7998 26.9479 68.7998 27.8223V32.5723H61.6332V21.4891H71.1246ZM63.2098 51.5721H19.9235C19.7024 50.42 19.2492 49.3377 18.5977 48.4055H64.5371C63.885 49.3375 63.4314 50.4199 63.2098 51.5721ZM51.5999 45.2388H40.1333C42.5 45.2388 49.2251 45.2388 51.5999 45.2388C53.9747 45.2388 53 45.2388 51.5999 45.2388ZM56.1865 5.65587L57.736 13.3587L50.76 5.65587H56.1865ZM46.2895 5.19196L58.7665 18.9779V45.2388H54.4665V30.989C54.4618 26.6189 51.256 23.0776 47.2999 23.0724H44.4333C40.4773 23.0776 37.2714 26.6189 37.2667 30.989V45.2388H32.9667V18.9779L45.4467 5.19196L45.8666 4.72804L46.2895 5.19196ZM3.42169 16.7391C3.42169 16.7391 9.2084 16.7391 10 16.7391C10 17.6135 10.7916 16.7391 10 16.7391H15.5C14.7084 16.7391 15.5 17.6135 15.5 16.7391C16.2916 16.7391 18 16.7391 18.5 16.7391H21.5C20.7084 16.7391 21.5 17.6135 21.5 16.7391C21.5 17.6135 22.2916 16.7391 21.5 16.7391C21.5 17.6135 26.2084 16.7391 27 16.7391C27.7916 16.7391 30.1001 16.7391 30.94 16.7391L31.5334 7.23919C31.5334 8.11363 30.1484 16.7391 30.94 16.7391C31.7316 16.7391 34.4001 8.11363 34.4001 7.23919L30.94 16.7391H3.42169ZM30.1001 19.9057V45.2388H17.2002H4.30032V19.9057H30.1001ZM2.867 48.4055H7.20423C6.55217 49.3375 6.09853 50.4199 5.87697 51.5721H2.867V48.4055ZM12.9002 57.9054C10.5254 57.9054 8.60028 55.7788 8.60028 53.1554C8.60028 50.5321 10.5254 48.4055 12.9002 48.4055C15.275 48.4055 17.2002 50.5321 17.2002 53.1554C17.2002 55.7788 15.275 57.9054 12.9002 57.9054ZM70.2331 57.9054C67.8583 57.9054 65.9331 55.7788 65.9331 53.1554C65.9331 50.5321 67.8583 48.4055 70.2331 48.4055C72.6079 48.4055 74.533 50.5321 74.533 53.1554C74.533 55.7788 72.6079 57.9054 70.2331 57.9054ZM81.6996 51.5721H77.2564C77.0352 50.42 76.5821 49.3377 75.9305 48.4055H81.6996C82.4912 48.4055 83.133 49.1144 83.133 49.9888C83.133 50.8632 82.4912 51.5721 81.6996 51.5721Z" fill="#FB794F"/>
<path d="M24.3669 10.4062C23.5753 10.4062 22.9336 11.1151 22.9336 11.9896V13.5729C22.9336 14.4473 23.5753 15.1562 24.3669 15.1562C25.1585 15.1562 25.8002 14.4473 25.8002 13.5729V11.9896C25.8002 11.1151 25.1585 10.4062 24.3669 10.4062Z" fill="white"/>
<path d="M18.6335 10.4062C17.8419 10.4062 17.2002 11.1151 17.2002 11.9896V13.5729C17.2002 14.4473 17.8419 15.1562 18.6335 15.1562C19.4251 15.1562 20.0668 14.4473 20.0668 13.5729V11.9896C20.0668 11.1151 19.4251 10.4062 18.6335 10.4062Z" fill="white"/>
<path d="M12.8996 10.4062C12.108 10.4062 11.4663 11.1151 11.4663 11.9896V13.5729C11.4663 14.4473 12.108 15.1562 12.8996 15.1562C13.6912 15.1562 14.333 14.4473 14.333 13.5729V11.9896C14.333 11.1151 13.6912 10.4062 12.8996 10.4062Z" fill="white"/>
<path d="M10.0336 35.7388H24.3668C25.95 35.7388 27.2335 34.3211 27.2335 32.5722V26.2389C27.2335 24.49 25.95 23.0723 24.3668 23.0723H10.0336C8.45043 23.0723 7.16699 24.49 7.16699 26.2389V32.5722C7.16699 34.3211 8.45043 35.7388 10.0336 35.7388ZM24.3668 32.5722H18.6336V26.2389H24.3668V32.5722ZM10.0336 26.2389H15.7669V32.5722H10.0336V26.2389Z" fill="#FB794F"/>
<path d="M41.5664 15.1562C41.5664 17.7795 43.4916 19.9062 45.8664 19.9062C48.2412 19.9062 50.1663 17.7795 50.1663 15.1562C50.1663 12.5329 48.2412 10.4062 45.8664 10.4062C43.4916 10.4062 41.5664 12.5329 41.5664 15.1562ZM45.8664 13.5729C46.658 13.5729 47.2997 14.2818 47.2997 15.1562C47.2997 16.0306 46.658 16.7395 45.8664 16.7395C45.0748 16.7395 44.433 16.0306 44.433 15.1562C44.433 14.2818 45.0748 13.5729 45.8664 13.5729Z" fill="#FB794F"/>
<path d="M12.8996 54.7389C13.6912 54.7389 14.333 54.03 14.333 53.1556C14.333 52.2811 13.6912 51.5723 12.8996 51.5723C12.108 51.5723 11.4663 52.2811 11.4663 53.1556C11.4663 54.03 12.108 54.7389 12.8996 54.7389Z" fill="#FB794F"/>
<path d="M70.2331 54.7389C71.0247 54.7389 71.6665 54.03 71.6665 53.1556C71.6665 52.2811 71.0247 51.5723 70.2331 51.5723C69.4415 51.5723 68.7998 52.2811 68.7998 53.1556C68.7998 54.03 69.4415 54.7389 70.2331 54.7389Z" fill="#FB794F"/>
</svg>
