<svg width="69" height="69" viewBox="0 0 69 69" fill="none" xmlns="http://www.w3.org/2000/svg">
<path d="M7.93509 43.5039C7.30917 43.5039 6.80176 44.0113 6.80176 44.6372V45.7706C6.80176 46.3965 7.30917 46.9039 7.93509 46.9039C8.56101 46.9039 9.06843 46.3965 9.06843 45.7706V44.6372C9.06843 44.0113 8.56101 43.5039 7.93509 43.5039Z" fill="#FB794F"/>
<path d="M7.93509 49.1709C7.30917 49.1709 6.80176 49.6783 6.80176 50.3042V58.2376C6.80176 58.8635 7.30917 59.3709 7.93509 59.3709C8.56101 59.3709 9.06843 58.8635 9.06843 58.2376V50.3042C9.06843 49.6783 8.56101 49.1709 7.93509 49.1709Z" fill="#FB794F"/>
<path d="M32.8679 61.6367H26.0679C25.442 61.6367 24.9346 62.1441 24.9346 62.7701C24.9346 63.396 25.442 63.9034 26.0679 63.9034H32.8679C33.4938 63.9034 34.0012 63.396 34.0012 62.7701C34.0012 62.1441 33.4938 61.6367 32.8679 61.6367Z" fill="#FB794F"/>
<path d="M21.5611 61.6371C20.9858 61.5512 20.4584 61.2674 20.0696 60.8347C19.6249 60.4052 18.918 60.4114 18.4809 60.8485C18.0437 61.2857 18.0376 61.9926 18.4671 62.4373C19.2649 63.3 20.3626 63.8247 21.535 63.9038C22.1468 63.9026 22.6444 63.4106 22.6525 62.7988C22.6617 62.1805 22.1787 61.6664 21.5611 61.6371Z" fill="#FB794F"/>
<path d="M64.6023 0.4375H37.4023H10.2023C8.32456 0.4375 6.80232 1.95973 6.80232 3.8375V38.7986C5.67292 38.916 4.53776 38.9694 3.40232 38.9584C1.52765 38.9627 0.0102488 40.4837 0.0102539 42.3584V60.4917C0.0102539 62.3695 1.53249 63.8917 3.41026 63.8917H9.99379C10.0641 63.8917 10.1298 63.9053 10.2023 63.9053H11.6757C12.1497 63.922 12.6071 64.0843 12.9858 64.37C13.8389 65.0297 14.7491 65.6119 15.7058 66.1096C18.3739 67.5131 21.3197 68.3081 24.3316 68.4375C24.5333 68.4375 24.7339 68.4375 24.9357 68.4228H29.5257H29.5359L41.9357 68.4375C44.4394 68.4375 46.469 66.4079 46.469 63.9042H64.6023C66.4801 63.9042 68.0023 62.3819 68.0023 60.5042V3.8375C68.0023 1.95973 66.4801 0.4375 64.6023 0.4375ZM41.9357 66.1708L29.5234 66.1572H29.5132H24.879C22.0446 66.1223 19.2589 65.4153 16.7507 64.0946C15.9114 63.6551 15.1124 63.1428 14.3628 62.5634C13.6656 62.0398 12.8339 61.7254 11.9647 61.6568C11.9352 61.6568 11.9103 61.6398 11.8797 61.6398H11.7595C11.7063 61.6398 11.6541 61.6262 11.602 61.6262H3.40232C2.7764 61.6262 2.26899 61.1187 2.26899 60.4928V42.3595C2.26899 41.7336 2.7764 41.2262 3.40232 41.2262C6.06906 41.2262 9.86232 41.0414 12.0043 39.4525C12.2072 39.3029 12.4577 39.1431 12.7149 38.9754C13.2753 38.6358 13.8044 38.247 14.2959 37.8137C18.3397 35.36 19.7813 26.9054 20.2765 20.2017C20.3384 19.2771 21.1111 18.5616 22.0377 18.5708C23.012 18.5715 23.8017 19.3611 23.8023 20.3354V36.7042C23.8023 39.2079 25.832 41.2375 28.3357 41.2375L37.4023 41.2296C37.4114 41.2296 37.4182 41.2296 37.4273 41.2296H44.2216C45.0554 41.1766 45.8506 41.5866 46.2911 42.2965C46.7317 43.0063 46.746 43.901 46.3284 44.6246C45.9109 45.3482 45.1292 45.7834 44.2941 45.7572C44.2378 45.7652 44.1821 45.7773 44.1275 45.7935L41.9595 45.7708H41.9504C41.3245 45.7686 40.8153 46.2743 40.8131 46.9002C40.8109 47.5261 41.3165 48.0353 41.9425 48.0375L47.5944 48.0783H47.6023C48.8542 48.0783 49.869 49.0931 49.869 50.345C49.8701 51.3978 49.1462 52.3127 48.1214 52.5538L41.9357 52.5708C41.3097 52.5708 40.8023 53.0782 40.8023 53.7042C40.8023 54.3301 41.3097 54.8375 41.9357 54.8375L45.2903 54.8284C45.3051 54.8284 45.3175 54.8375 45.3323 54.8375C46.5841 54.8375 47.5989 55.8523 47.5989 57.1042C47.5989 58.356 46.5841 59.3708 45.3323 59.3708H40.8023C40.1764 59.3708 39.669 59.8782 39.669 60.5042C39.669 61.1301 40.1764 61.6375 40.8023 61.6375H41.9357C43.1875 61.6375 44.2023 62.6523 44.2023 63.9042C44.2023 65.156 43.1875 66.1708 41.9357 66.1708ZM59.9484 61.6375C59.9484 62.2634 65.2283 61.6375 64.6023 61.6375H45.84C45.8298 61.6205 45.8219 61.6035 45.8117 61.5876C47.3842 61.4309 48.7596 60.4616 49.4362 59.0334C50.1127 57.6052 49.9914 55.9269 49.1165 54.6108C50.9254 53.972 52.1352 52.2623 52.1357 50.3438C52.13 49.9471 52.0729 49.5528 51.9657 49.1708L51.8958 48.7529C51.4484 47.8582 51.4484 47.8582 51.4484 47.8582C51.4484 47.8582 51.1477 46.9042 50.5218 46.9042C49.8444 46.32 49.0052 45.9559 48.1157 45.8604C48.5528 45.1522 48.784 44.3363 48.7833 43.5042V42.2965L48.3169 41.1476C47.4221 39.8055 45.8516 38.9081 44.2023 38.9538H36.2146C36.2033 38.9538 36.1953 38.9595 36.184 38.9595L28.3357 38.9708C27.0838 38.9708 26.069 37.956 26.069 36.7042V20.3354C26.0539 18.1793 24.3445 16.417 22.1898 16.3363C20.0352 16.2555 18.1987 17.885 18.0223 20.034C17.3899 28.5816 15.529 34.5202 13.0481 35.9199C12.952 35.9743 12.8643 36.0423 12.7875 36.1216C12.3851 36.4789 11.9499 36.7973 11.4875 37.0725C11.1883 37.2663 10.9005 37.4533 10.6636 37.6278C10.1802 37.9609 9.64366 38.2093 9.07692 38.3622V3.8375C9.07691 3.21467 9.5795 2.70853 10.2023 2.70417H29.469C29.118 2.89937 29.8152 2.90779 29.469 2.70417L39.669 38.9538L48.3169 41.1476L48.1157 45.8604C48.7417 45.8604 50.5218 46.2783 50.5218 46.9042L47.8695 60.3849L45.8117 61.5876L59.9484 61.6375Z" fill="#FB794F"/>
<path d="M59.0537 12.0693H43.187C42.5611 12.0693 42.0537 12.5767 42.0537 13.2027C42.0537 13.8286 42.5611 14.336 43.187 14.336H59.0537C59.6796 14.336 60.187 13.8286 60.187 13.2027C60.187 12.5767 59.6796 12.0693 59.0537 12.0693Z" fill="white"/>
<path d="M59.0537 23.7012H43.187C42.5611 23.7012 42.0537 24.2086 42.0537 24.8345C42.0537 25.4604 42.5611 25.9678 43.187 25.9678H59.0537C59.6796 25.9678 60.187 25.4604 60.187 24.8345C60.187 24.2086 59.6796 23.7012 59.0537 23.7012Z" fill="white"/>
<path d="M59.0537 29.0693H43.187C42.5611 29.0693 42.0537 29.5767 42.0537 30.2027C42.0537 30.8286 42.5611 31.336 43.187 31.336H59.0537C59.6796 31.336 60.187 30.8286 60.187 30.2027C60.187 29.5767 59.6796 29.0693 59.0537 29.0693Z" fill="white"/>
<path d="M59.0536 17.7363H46.5869C45.961 17.7363 45.4536 18.2437 45.4536 18.8697C45.4536 19.4956 45.961 20.003 46.5869 20.003H59.0536C59.6795 20.003 60.187 19.4956 60.187 18.8697C60.187 18.2437 59.6795 17.7363 59.0536 17.7363Z" fill="white"/>
</svg>
