<svg width="25" height="25" viewBox="0 0 25 25" fill="none" xmlns="http://www.w3.org/2000/svg">
<path d="M7.08369 23.333H18.7503C18.9803 23.333 19.167 23.5197 19.167 23.7497V24.583C19.167 24.813 18.9803 24.9997 18.7503 24.9997C18.5204 24.9997 18.3337 24.813 18.3337 24.583V24.1664H7.08369C6.85371 24.1664 6.66704 23.9797 6.66704 23.7497C6.66704 23.5197 6.85366 23.333 7.08369 23.333Z" fill="black"/>
<path d="M15.834 10.4167C15.834 10.6466 15.6473 10.8333 15.4173 10.8333H13.7506C13.5207 10.8333 13.334 10.6466 13.334 10.4167V7.91665C13.334 7.68667 13.5207 7.5 13.7506 7.5H15.4173C15.6473 7.5 15.8339 7.68667 15.8339 7.91665V10.4167H15.834ZM15.0006 8.33335H14.1673V10H15.0006V8.33335Z" fill="black"/>
<path d="M19.5838 5H24.5838C24.8138 5 25.0005 5.18667 25.0005 5.41665V13.75C25.0005 13.98 24.8138 14.1666 24.5838 14.1666C24.3539 14.1666 24.1672 13.98 24.1672 13.75V5.83335H19.5838C19.3539 5.83335 19.1672 5.64668 19.1672 5.4167C19.1672 5.18672 19.3538 5 19.5838 5Z" fill="black"/>
<path d="M5.00049 20.4166C5.00049 20.6466 4.81382 20.8333 4.58384 20.8333H2.91719C2.68721 20.8333 2.50054 20.6466 2.50054 20.4166V17.9167C2.50054 17.6867 2.68721 17.5 2.91719 17.5H4.58384C4.81382 17.5 5.00049 17.6867 5.00049 17.9167V20.4166ZM4.16714 18.3334H3.33379V20H4.16714V18.3334Z" fill="black"/>
<path d="M22.9171 15C24.9768 15 25.0005 20.3625 25.0005 20.4166C25.0005 21.4229 24.2834 22.2642 23.3338 22.4579V24.5833C23.3338 24.8133 23.1472 25 22.9172 25C22.6872 25 22.5005 24.8133 22.5005 24.5833V22.4579C21.551 22.2642 20.8339 21.4229 20.8339 20.4166C20.8338 20.3625 20.8576 15 22.9171 15ZM22.9171 21.6666C23.6063 21.6666 24.1671 21.1058 24.1671 20.4166C24.1671 18.3408 23.6096 15.8333 22.9171 15.8333C22.2247 15.8333 21.6671 18.3408 21.6671 20.4166C21.6671 21.1058 22.228 21.6666 22.9171 21.6666Z" fill="black"/>
<path d="M20.4171 12.5H22.0838C22.3138 12.5 22.5005 12.6867 22.5005 12.9166V13.75C22.5005 13.98 22.3138 14.1667 22.0838 14.1667C21.8539 14.1667 21.6672 13.98 21.6672 13.75V13.3333H20.8338V15.4167C20.8338 15.6467 20.6472 15.8333 20.4172 15.8333C20.1872 15.8333 20.0005 15.6467 20.0005 15.4167V12.9167C20.0005 12.6867 20.1872 12.5 20.4171 12.5Z" fill="black"/>
<path d="M4.58384 10.8333H2.91719C2.68721 10.8333 2.50054 10.6466 2.50054 10.4167V7.91665C2.50054 7.68667 2.68721 7.5 2.91719 7.5H4.58384C4.81382 7.5 5.00049 7.68667 5.00049 7.91665V10.4167C5.00049 10.6466 4.81382 10.8333 4.58384 10.8333ZM4.16714 8.3333H3.33379V9.99995H4.16714V8.3333Z" fill="black"/>
<path d="M20.4171 7.5H22.0838C22.3138 7.5 22.5005 7.68667 22.5005 7.91665V10.4167C22.5005 10.6466 22.3138 10.8333 22.0838 10.8333H20.4172C20.1872 10.8333 20.0005 10.6466 20.0005 10.4167V7.91665C20.0005 7.68667 20.1872 7.5 20.4171 7.5ZM20.8338 10H21.6671V8.33335H20.8338V10H20.8338Z" fill="black"/>
<path d="M11.667 10.4167C11.667 10.6466 11.4803 10.8333 11.2503 10.8333H9.58369C9.35371 10.8333 9.16704 10.6466 9.16704 10.4167V7.91665C9.16704 7.68667 9.35371 7.5 9.58369 7.5H11.2503C11.4803 7.5 11.667 7.68667 11.667 7.91665V10.4167ZM10.8337 8.33335H10.0003V10H10.8337V8.33335Z" fill="black"/>
<path d="M0.417333 5H5.41733C5.64731 5 5.83398 5.18667 5.83398 5.41665C5.83398 5.64663 5.64731 5.8333 5.41733 5.8333H0.833984V22.5767C0.964795 22.53 1.10356 22.5 1.25063 22.5C1.3227 22.5 1.39438 22.5063 1.46479 22.5188C1.75229 22.0008 2.29936 21.6667 2.91728 21.6667C3.5352 21.6667 4.08228 22.0008 4.36978 22.5188C4.44019 22.5063 4.51186 22.5 4.58393 22.5C5.2731 22.5 5.83394 23.0609 5.83394 23.75C5.83394 24.4392 5.2731 25 4.58393 25H1.25068C0.561523 25 0.000682831 24.4392 0.000682831 23.75V5.41665C0.000682831 5.18667 0.187352 5 0.417333 5ZM1.25068 24.1667H4.58403C4.81362 24.1667 5.00068 23.9796 5.00068 23.75C5.00068 23.5204 4.81362 23.3334 4.58403 23.3334C4.50405 23.3334 4.42822 23.3563 4.3582 23.4013C4.24404 23.4746 4.10151 23.488 3.97568 23.4371C3.84985 23.3863 3.75693 23.2771 3.72651 23.145C3.63857 22.7654 3.30566 22.5 2.91733 22.5C2.529 22.5 2.19609 22.7654 2.10815 23.145C2.07773 23.2771 1.98481 23.3863 1.85898 23.4371C1.73355 23.488 1.59067 23.4746 1.47646 23.4013C1.20522 23.2263 0.833984 23.4404 0.833984 23.75C0.834033 23.9796 1.02109 24.1667 1.25068 24.1667Z" fill="black"/>
<path d="M11.2503 5.8333H9.58369C9.35371 5.8333 9.16704 5.64663 9.16704 5.41665V2.91665C9.16704 2.68667 9.35371 2.5 9.58369 2.5H11.2503C11.4803 2.5 11.667 2.68667 11.667 2.91665V5.41665C11.667 5.64663 11.4803 5.8333 11.2503 5.8333ZM10.8337 3.3333H10.0003V4.99995H10.8337V3.3333Z" fill="black"/>
<path d="M11.667 15.4167C11.667 15.6466 11.4803 15.8333 11.2503 15.8333H9.58369C9.35371 15.8333 9.16704 15.6466 9.16704 15.4167V12.9166C9.16704 12.6867 9.35371 12.5 9.58369 12.5H11.2503C11.4803 12.5 11.667 12.6867 11.667 12.9166V15.4167ZM10.8337 13.3333H10.0003V15H10.8337V13.3333Z" fill="black"/>
<path d="M15.4173 5.8333H13.7507C13.5207 5.8333 13.334 5.64663 13.334 5.41665V2.91665C13.334 2.68667 13.5207 2.5 13.7507 2.5H15.4173C15.6473 2.5 15.834 2.68667 15.834 2.91665V5.41665C15.834 5.64663 15.6474 5.8333 15.4173 5.8333ZM15.0007 3.3333H14.1673V4.99995H15.0007V3.3333Z" fill="black"/>
<path d="M12.7961 20.1205C12.8711 20.1997 12.917 20.308 12.917 20.4164C12.917 20.5247 12.8711 20.633 12.7961 20.7122C12.717 20.7872 12.6086 20.8331 12.5003 20.8331C12.3919 20.8331 12.2836 20.7872 12.2044 20.7122C12.1294 20.6331 12.0836 20.5247 12.0836 20.4164C12.0836 20.308 12.1294 20.1997 12.2044 20.1205C12.3628 19.9663 12.6378 19.9663 12.7961 20.1205Z" fill="black"/>
<path d="M15.834 15.4167C15.834 15.6466 15.6473 15.8333 15.4173 15.8333H13.7506C13.5207 15.8333 13.334 15.6466 13.334 15.4167V12.9166C13.334 12.6867 13.5207 12.5 13.7506 12.5H15.4173C15.6473 12.5 15.8339 12.6867 15.8339 12.9166V15.4167H15.834ZM15.0006 13.3333H14.1673V15H15.0006V13.3333Z" fill="black"/>
<path d="M16.667 17.9167C16.667 18.1466 16.4803 18.3333 16.2503 18.3333H15.0003V22.0833C15.0003 22.3133 14.8137 22.5 14.5837 22.5C14.3537 22.5 14.167 22.3133 14.167 22.0833V18.3333H10.8337V22.0833C10.8337 22.3133 10.647 22.5 10.417 22.5C10.1871 22.5 10.0004 22.3133 10.0004 22.0833V18.3333H8.75038C8.5204 18.3333 8.33373 18.1466 8.33373 17.9167C8.33373 17.6867 8.5204 17.5 8.75038 17.5H16.2503C16.4803 17.5 16.667 17.6867 16.667 17.9167Z" fill="black"/>
<path d="M5.00049 15.4167C5.00049 15.6466 4.81382 15.8333 4.58384 15.8333H2.91719C2.68721 15.8333 2.50054 15.6466 2.50054 15.4167V12.9166C2.50054 12.6867 2.68721 12.5 2.91719 12.5H4.58384C4.81382 12.5 5.00049 12.6867 5.00049 12.9166V15.4167ZM4.16714 13.3333H3.33379V15H4.16714V13.3333Z" fill="black"/>
<path d="M7.08403 0H17.9173C18.1473 0 18.334 0.18667 18.334 0.41665V22.0833C18.334 22.3133 18.1473 22.5 17.9173 22.5C17.6874 22.5 17.5007 22.3133 17.5007 22.0833V0.833301H7.50068V22.0833C7.50068 22.3133 7.31401 22.5 7.08403 22.5C6.85405 22.5 6.66738 22.3133 6.66738 22.0833V0.41665C6.66733 0.18667 6.854 0 7.08403 0Z" fill="black"/>
</svg>
