<svg width="20" height="20" viewBox="0 0 20 20" fill="none" xmlns="http://www.w3.org/2000/svg">
<path d="M0.524807 15.4293L4.57288 12.7295C5.08659 12.3897 5.7752 12.5015 6.15499 12.9865L7.33415 14.5027C7.48569 14.7025 7.76116 14.7605 7.98038 14.6387L8.20469 14.5151C8.94825 14.1097 9.87342 13.6051 11.7375 11.7403C13.6015 9.87541 14.1071 8.94947 14.5124 8.20722L14.6354 7.9829C14.7589 7.7637 14.702 7.48704 14.5021 7.33428L12.987 6.15539C12.5023 5.77553 12.3903 5.08707 12.7297 4.57316L15.4293 0.524806C15.7772 0.00148657 16.4751 -0.155611 17.0137 0.168153L18.7065 1.18507C19.2383 1.49778 19.6285 2.00422 19.7953 2.59828C20.4048 4.81944 19.9463 8.65281 14.2998 14.3004C9.80808 18.792 6.46424 19.9999 4.16591 19.9999C3.63696 20.0022 3.11009 19.9334 2.59946 19.7953C2.00533 19.6288 1.49884 19.2385 1.18635 18.7064L0.168493 17.0145C-0.155718 16.4758 0.00129128 15.7774 0.524807 15.4293ZM0.742783 16.6725L1.7583 18.3654C1.98268 18.7495 2.34696 19.0318 2.77483 19.1534C4.82519 19.7163 8.40731 19.25 13.8282 13.8288C19.2491 8.40752 19.7153 4.82545 19.1524 2.77463C19.0307 2.34623 18.748 1.98145 18.3635 1.7567L16.6707 0.741117C16.4371 0.600503 16.1341 0.668662 15.9832 0.895753L14.5167 3.09758L13.2859 4.94376C13.1385 5.16667 13.1869 5.46544 13.3972 5.63039L14.9126 6.80928C15.3738 7.16195 15.5055 7.80006 15.2216 8.30651L15.1012 8.52516C14.6753 9.30643 14.1457 10.2783 12.2123 12.2116C10.279 14.1447 9.30741 14.6744 8.52655 15.1003L8.3076 15.221C7.80123 15.5049 7.16312 15.3732 6.81048 14.912L5.63167 13.3965C5.46669 13.1863 5.16807 13.1379 4.94509 13.2851L0.897369 15.9849C0.670137 16.1358 0.601982 16.4389 0.742783 16.6725Z" fill="black"/>
</svg>
