<svg width="15" height="25" viewBox="0 0 15 25" fill="none" xmlns="http://www.w3.org/2000/svg">
<path d="M2.36863 0H12.6309C13.3948 0 14.0166 0.67583 14.0166 1.50625V23.4937C14.0166 24.3242 13.3948 25 12.6309 25H2.36903C1.60505 25 0.983283 24.3242 0.983283 23.4942V1.50625C0.983238 0.67583 1.605 0 2.36863 0ZM1.74992 23.4937C1.74992 23.8646 2.02745 24.1667 2.36863 24.1667H12.6309C12.9724 24.1667 13.2499 23.8646 13.2499 23.4941V1.50625C13.2499 1.1354 12.9724 0.83335 12.6309 0.83335H2.36903C2.02749 0.83335 1.74997 1.13545 1.74997 1.50625V23.4937H1.74992Z" fill="black"/>
</svg>
