<svg width="96" height="66" viewBox="0 0 96 66" fill="none" xmlns="http://www.w3.org/2000/svg">
<path d="M82.7768 27.0815C75.8402 24.1916 75.3214 22.9475 75.3214 21.3783C75.3214 19.174 77.1905 17.8608 80.3241 17.8608C84.3656 17.8608 86.9804 19.3253 88.2392 20.0314L91.1401 21.6604L95.0538 11.5655L92.9253 10.3848C90.3982 8.98008 87.7109 8.10023 84.7318 7.70421V0.4375H74.3544V8.26275C67.4807 10.2354 63.2428 15.507 63.2428 22.1741C63.2428 30.8474 70.3301 34.7386 77.2515 37.3931C83.8449 40.0083 83.8449 42.2425 83.8449 43.4381C83.8449 46.0608 81.5028 47.7551 77.8809 47.7551C74.8122 47.7551 71.4363 46.7613 68.8539 45.095L65.8233 43.1429L62.0908 53.3387L63.8474 54.5716C66.3936 56.3519 70.025 57.6165 73.9177 58.0892V65.5427H84.2912V57.4428C91.43 55.444 95.9998 49.7894 95.9998 42.8571C95.9979 33.558 88.9258 29.5361 82.7768 27.0815ZM83.1087 55.8232L75 55.8881C71.1664 55.5425 65 53.0056 65 53.0056L64.3681 52.6457L67.7496 54.5716C70.6333 56.4303 79.6814 55.8232 83.1087 55.8232C89.3636 56.5076 95.6742 47.2941 94.0868 42.8608C94.0868 40.4268 96.8527 35.6555 90 32.9375C85.9473 29.4375 79.1909 27.1434 74.5 23.9375C74.5 23.9375 74.298 20.1047 77.8771 16.254L82.382 16.1062C85.4355 16.4107 87.6098 17.5395 90.1464 18.948L89.1833 18.4062C87.7834 17.6217 84.8691 15.9909 80.3222 15.9909C75.2222 15.9909 73.4122 18.8919 73.4122 21.3764C73.4122 24.3504 75.3462 26.0129 82.0425 28.8019C87.9989 31.1837 94.0868 34.7162 94.0868 42.8608C94.0906 49.1394 89.7802 54.2242 83.1087 55.8232Z" fill="#FB794F"/>
<path d="M58.2856 17.5801H12.5713V21.0086H58.2856V17.5801Z" fill="#FB794F"/>
<path d="M53.7143 32.4375H0V35.8661H53.7143V32.4375Z" fill="#FB794F"/>
<path d="M50.2856 46.1523H12.5713V49.5809H50.2856V46.1523Z" fill="#FB794F"/>
</svg>
