<svg width="100" height="100" viewBox="0 0 100 100" fill="none" xmlns="http://www.w3.org/2000/svg">
<path d="M98.78 42.8398C97.7268 41.2742 96.1305 40.1954 94.2745 39.7865C95.4718 37.532 95.423 34.719 93.8979 32.4523C92.813 30.8387 91.1764 29.7966 89.3948 29.4021C89.7125 28.8055 89.9473 28.1616 90.0876 27.4826C90.4766 25.5943 90.0969 23.6701 89.0159 22.0642C87.9628 20.4978 86.3664 19.419 84.5105 19.0109C85.7077 16.7564 85.6589 13.9434 84.1338 11.676C81.9044 8.36099 77.3493 7.44928 73.9815 9.64502L66.6895 14.3997C62.8024 12.4587 58.6682 11.0816 54.3774 10.2973C53.0213 8.2702 51.4443 6.38574 49.679 4.70116L46.6622 1.82259C44.4529 -0.286174 40.9882 -0.602795 38.4232 1.07033C35.3886 3.04864 34.5548 7.08917 36.5642 10.0768C36.6432 10.1951 36.7207 10.3141 36.7974 10.4331C26.9086 12.403 17.8962 17.5697 11.2256 25.1403C3.987 33.3564 0 43.8789 0 54.7691C0 56.8565 0.144911 58.9477 0.431634 60.9832C2.64095 76.8074 13.3473 90.4442 28.3716 96.5729C33.9434 98.8464 39.8553 100 45.9408 100C55.5785 100 64.8041 97.094 72.6207 91.597C80.2677 86.2183 85.989 78.7956 89.167 70.1317C89.4638 69.3245 89.0384 68.4326 88.2185 68.1412C87.3978 67.8497 86.4927 68.2678 86.1967 69.0758C83.2373 77.1439 77.9081 84.0561 70.7842 89.0663C63.5068 94.1849 54.916 96.8903 45.9408 96.8903C41.3005 96.8903 36.7695 96.1693 32.433 94.7472L45.2829 86.3693L45.2852 86.3678L45.2867 86.3663L55.966 79.4037H55.9668C56.9254 78.7781 57.5802 77.8229 57.8096 76.7128C58.0389 75.6027 57.8158 74.4705 57.1803 73.5267L57.0393 73.3162L59.1138 71.9635C60.5939 70.9984 62.3739 70.6199 64.1268 70.8969C66.6647 71.2982 69.2421 70.7489 71.384 69.3519L88.5904 58.1337C88.4727 59.6031 88.2789 61.0641 88.0085 62.5007C87.8488 63.3453 88.4153 64.1571 89.2732 64.3135C89.37 64.3318 89.4677 64.3402 89.563 64.3402C90.3092 64.3402 90.9726 63.8168 91.1136 63.0684C91.5514 60.7498 91.8033 58.3748 91.8684 55.9967L96.7171 52.8351C98.3483 51.7715 99.4619 50.1457 99.8509 48.2582C100.241 46.3699 99.8602 44.4458 98.78 42.8398ZM63.6231 16.3986L58.7976 19.5449L57.8475 17.0249C57.4508 15.9736 56.9959 14.9429 56.4922 13.9343C58.9402 14.5454 61.3239 15.3694 63.6231 16.3986ZM13.6116 27.1781C20.0226 19.902 28.7552 15.0108 38.3085 13.3148C39.8413 16.9708 40.2086 21.0555 39.2927 24.9488L35.4421 41.3269C34.8368 40.6906 34.0511 40.2519 33.1661 40.0749C32.0378 39.8483 30.8886 40.0688 29.93 40.6944L19.0229 47.805L19.0214 47.8058L19.0206 47.8065L3.28957 58.0627C3.20355 56.9702 3.1586 55.8693 3.1586 54.7691C3.1586 44.6281 6.87128 34.8289 13.6116 27.1781ZM54.7145 76.0925C54.6533 76.3885 54.4781 76.6441 54.2216 76.8112H54.2224L44.8427 82.9262L27.434 57.3654C26.9481 56.652 25.967 56.4621 25.2425 56.9404C24.5187 57.4188 24.325 58.3839 24.8108 59.0973L42.2087 84.6435L28.8188 93.3739C15.5133 87.6442 5.99174 75.544 3.7026 61.4639L19.4522 51.2291L21.2648 53.8917C21.5701 54.3388 22.0691 54.5807 22.5783 54.5807C22.8805 54.5807 23.1866 54.496 23.4563 54.3174C24.1808 53.8391 24.3746 52.8732 23.8887 52.1599L22.0885 49.5163L31.6744 43.2869C31.9293 43.1198 32.2354 43.0618 32.5361 43.1221C32.8368 43.1823 33.0964 43.3548 33.2661 43.6065L54.5471 75.2441C54.7161 75.4951 54.7757 75.7965 54.7145 76.0925ZM96.7559 47.6387C96.5342 48.7129 95.9011 49.6376 94.9727 50.2426L89.4297 53.8566C89.4281 53.8574 89.4266 53.8589 89.4243 53.8597L69.6396 66.7595C68.1595 67.7246 66.3795 68.1038 64.6266 67.8261C62.0895 67.4255 59.5121 67.9741 57.3694 69.371L55.2949 70.7237L37.8653 44.812L42.3707 25.6507C43.5308 20.7145 42.9193 15.5151 40.7092 10.9855C40.6891 10.9382 40.6674 10.8924 40.6426 10.8474C40.2179 9.99139 39.7359 9.16055 39.1974 8.35946C38.1497 6.80154 38.5844 4.69506 40.1676 3.6628C41.5051 2.79076 43.3122 2.95556 44.4638 4.05495L47.4806 6.93429C50.7438 10.0494 53.3049 13.9129 54.8858 18.1075L56.5286 22.4647C56.5317 22.4731 56.5348 22.48 56.5379 22.4876C56.5418 22.4975 56.5464 22.5082 56.5503 22.5181C56.5619 22.5448 56.5728 22.5692 56.5844 22.5898C56.6162 22.6554 56.6511 22.7203 56.6929 22.7821C57.1749 23.4985 58.1544 23.6946 58.8813 23.22L75.7259 12.2383C77.6415 10.9893 80.2321 11.5074 81.5006 13.3933C82.7692 15.2793 82.243 17.8298 80.3274 19.0788L78.8651 20.0324L78.8636 20.0332L75.6019 22.1603C75.5972 22.1633 75.5941 22.1664 75.5895 22.1687C75.5709 22.1816 75.5531 22.1939 75.5383 22.2061C74.8642 22.6936 74.6898 23.6206 75.1571 24.3148C75.6383 25.0312 76.6186 25.2273 77.3463 24.7528L80.6102 22.6242C81.5378 22.0207 82.6483 21.8078 83.7386 22.026C84.8289 22.2442 85.7689 22.8675 86.3827 23.7815C86.9972 24.6948 87.2142 25.7896 86.9925 26.863C86.7709 27.9373 86.1378 28.862 85.2094 29.467L80.4839 32.5485C79.7563 33.0223 79.5571 33.9866 80.0391 34.703C80.3429 35.1547 80.845 35.3996 81.3573 35.3996C81.6564 35.3996 81.9594 35.3157 82.2275 35.1409L82.959 34.6641L85.49 33.0139C87.4064 31.7649 89.9962 32.283 91.2647 34.169C92.5333 36.0557 92.0071 38.6055 90.0915 39.8552L87.731 41.394C87.7187 41.4016 87.7063 41.41 87.6939 41.4184L85.366 42.9359C84.6383 43.4097 84.4392 44.3748 84.9212 45.0912C85.2249 45.5429 85.7271 45.7878 86.2393 45.7878C86.5384 45.7878 86.8414 45.7039 87.1096 45.5291L87.8411 45.0523L87.8419 45.0515L90.3728 43.4021C91.3004 42.7971 92.4116 42.5834 93.5027 42.8024C94.5938 43.0198 95.533 43.6439 96.1475 44.5572C96.7613 45.4704 96.9775 46.5652 96.7559 47.6387Z" fill="#555555"/>
</svg>
